<mxfile host="app.diagrams.net" agent="Mozilla/5.0 (Windows NT 10.0; Win64; x64) AppleWebKit/537.36 (KHTML, like Gecko) Chrome/135.0.0.0 Safari/537.36" version="26.3.0">
  <diagram name="Pagina-1" id="SxePeirIP_XnnrYtnZY3">
    <mxGraphModel dx="1158" dy="586" grid="1" gridSize="10" guides="1" tooltips="1" connect="1" arrows="1" fold="1" page="1" pageScale="1" pageWidth="827" pageHeight="1169" math="0" shadow="0">
      <root>
        <mxCell id="0" />
        <mxCell id="1" parent="0" />
        <mxCell id="UBjJZvMahUqhplBNhwVx-5" style="edgeStyle=orthogonalEdgeStyle;rounded=0;orthogonalLoop=1;jettySize=auto;html=1;" parent="1" source="UBjJZvMahUqhplBNhwVx-1" target="UBjJZvMahUqhplBNhwVx-4" edge="1">
          <mxGeometry relative="1" as="geometry" />
        </mxCell>
        <mxCell id="UBjJZvMahUqhplBNhwVx-1" value="Spore&lt;div&gt;2&lt;/div&gt;" style="ellipse;whiteSpace=wrap;html=1;aspect=fixed;fillColor=#d5e8d4;strokeColor=#82b366;" parent="1" vertex="1">
          <mxGeometry x="40" y="200" width="80" height="80" as="geometry" />
        </mxCell>
        <mxCell id="UBjJZvMahUqhplBNhwVx-9" style="edgeStyle=orthogonalEdgeStyle;rounded=0;orthogonalLoop=1;jettySize=auto;html=1;" parent="1" source="UBjJZvMahUqhplBNhwVx-2" target="UBjJZvMahUqhplBNhwVx-7" edge="1">
          <mxGeometry relative="1" as="geometry" />
        </mxCell>
        <mxCell id="UBjJZvMahUqhplBNhwVx-2" value="Spore&lt;div&gt;1&lt;/div&gt;" style="ellipse;whiteSpace=wrap;html=1;aspect=fixed;fillColor=#d5e8d4;strokeColor=#82b366;" parent="1" vertex="1">
          <mxGeometry x="280" y="200" width="80" height="80" as="geometry" />
        </mxCell>
        <mxCell id="UBjJZvMahUqhplBNhwVx-3" value="Standby" style="ellipse;whiteSpace=wrap;html=1;aspect=fixed;fillColor=#e1d5e7;strokeColor=#9673a6;" parent="1" vertex="1">
          <mxGeometry x="520" y="200" width="80" height="80" as="geometry" />
        </mxCell>
        <mxCell id="UBjJZvMahUqhplBNhwVx-6" style="edgeStyle=orthogonalEdgeStyle;rounded=0;orthogonalLoop=1;jettySize=auto;html=1;" parent="1" source="UBjJZvMahUqhplBNhwVx-4" target="UBjJZvMahUqhplBNhwVx-2" edge="1">
          <mxGeometry relative="1" as="geometry" />
        </mxCell>
        <mxCell id="UBjJZvMahUqhplBNhwVx-12" style="edgeStyle=orthogonalEdgeStyle;rounded=0;orthogonalLoop=1;jettySize=auto;html=1;dashed=1;dashPattern=1 4;" parent="1" source="UBjJZvMahUqhplBNhwVx-4" target="UBjJZvMahUqhplBNhwVx-11" edge="1">
          <mxGeometry relative="1" as="geometry">
            <Array as="points">
              <mxPoint x="200" y="360" />
            </Array>
          </mxGeometry>
        </mxCell>
        <mxCell id="UBjJZvMahUqhplBNhwVx-4" value="germ tube&lt;div&gt;angle 0&lt;/div&gt;" style="rounded=1;whiteSpace=wrap;html=1;" parent="1" vertex="1">
          <mxGeometry x="160" y="210" width="80" height="60" as="geometry" />
        </mxCell>
        <mxCell id="UBjJZvMahUqhplBNhwVx-10" style="edgeStyle=orthogonalEdgeStyle;rounded=0;orthogonalLoop=1;jettySize=auto;html=1;" parent="1" source="UBjJZvMahUqhplBNhwVx-7" target="UBjJZvMahUqhplBNhwVx-3" edge="1">
          <mxGeometry relative="1" as="geometry" />
        </mxCell>
        <mxCell id="UBjJZvMahUqhplBNhwVx-13" style="edgeStyle=orthogonalEdgeStyle;rounded=0;orthogonalLoop=1;jettySize=auto;html=1;dashed=1;dashPattern=1 4;" parent="1" source="UBjJZvMahUqhplBNhwVx-7" target="UBjJZvMahUqhplBNhwVx-11" edge="1">
          <mxGeometry relative="1" as="geometry">
            <Array as="points">
              <mxPoint x="440" y="360" />
            </Array>
          </mxGeometry>
        </mxCell>
        <mxCell id="UBjJZvMahUqhplBNhwVx-7" value="germ tube&lt;div&gt;angle 180&lt;/div&gt;" style="rounded=1;whiteSpace=wrap;html=1;" parent="1" vertex="1">
          <mxGeometry x="400" y="210" width="80" height="60" as="geometry" />
        </mxCell>
        <mxCell id="UBjJZvMahUqhplBNhwVx-24" style="edgeStyle=orthogonalEdgeStyle;rounded=0;orthogonalLoop=1;jettySize=auto;html=1;" parent="1" source="UBjJZvMahUqhplBNhwVx-11" edge="1">
          <mxGeometry relative="1" as="geometry">
            <mxPoint x="320" y="420" as="targetPoint" />
          </mxGeometry>
        </mxCell>
        <mxCell id="UBjJZvMahUqhplBNhwVx-11" value="Tip" style="ellipse;whiteSpace=wrap;html=1;aspect=fixed;fillColor=#fff2cc;strokeColor=#d6b656;" parent="1" vertex="1">
          <mxGeometry x="280" y="320" width="80" height="80" as="geometry" />
        </mxCell>
        <mxCell id="UBjJZvMahUqhplBNhwVx-29" style="edgeStyle=orthogonalEdgeStyle;rounded=0;orthogonalLoop=1;jettySize=auto;html=1;dashed=1;dashPattern=1 4;" parent="1" source="UBjJZvMahUqhplBNhwVx-19" target="UBjJZvMahUqhplBNhwVx-11" edge="1">
          <mxGeometry relative="1" as="geometry">
            <Array as="points">
              <mxPoint x="160" y="540" />
              <mxPoint x="160" y="360" />
            </Array>
          </mxGeometry>
        </mxCell>
        <mxCell id="UBjJZvMahUqhplBNhwVx-31" style="edgeStyle=orthogonalEdgeStyle;rounded=0;orthogonalLoop=1;jettySize=auto;html=1;" parent="1" target="UBjJZvMahUqhplBNhwVx-30" edge="1">
          <mxGeometry relative="1" as="geometry">
            <mxPoint x="240" y="570" as="sourcePoint" />
          </mxGeometry>
        </mxCell>
        <mxCell id="UBjJZvMahUqhplBNhwVx-19" value="grow straight&lt;div&gt;no split&lt;/div&gt;" style="rounded=1;whiteSpace=wrap;html=1;" parent="1" vertex="1">
          <mxGeometry x="200" y="510" width="80" height="60" as="geometry" />
        </mxCell>
        <mxCell id="UBjJZvMahUqhplBNhwVx-37" style="edgeStyle=orthogonalEdgeStyle;rounded=0;orthogonalLoop=1;jettySize=auto;html=1;" parent="1" target="UBjJZvMahUqhplBNhwVx-36" edge="1">
          <mxGeometry relative="1" as="geometry">
            <mxPoint x="400" y="570" as="sourcePoint" />
          </mxGeometry>
        </mxCell>
        <mxCell id="UBjJZvMahUqhplBNhwVx-38" style="edgeStyle=orthogonalEdgeStyle;rounded=0;orthogonalLoop=1;jettySize=auto;html=1;dashed=1;dashPattern=1 4;" parent="1" source="UBjJZvMahUqhplBNhwVx-20" target="UBjJZvMahUqhplBNhwVx-11" edge="1">
          <mxGeometry relative="1" as="geometry">
            <Array as="points">
              <mxPoint x="480" y="540" />
              <mxPoint x="480" y="360" />
            </Array>
          </mxGeometry>
        </mxCell>
        <mxCell id="UBjJZvMahUqhplBNhwVx-20" value="grow straight&lt;div&gt;split&lt;/div&gt;" style="rounded=1;whiteSpace=wrap;html=1;" parent="1" vertex="1">
          <mxGeometry x="360" y="510" width="80" height="60" as="geometry" />
        </mxCell>
        <mxCell id="UBjJZvMahUqhplBNhwVx-25" style="edgeStyle=orthogonalEdgeStyle;rounded=0;orthogonalLoop=1;jettySize=auto;html=1;" parent="1" target="UBjJZvMahUqhplBNhwVx-19" edge="1">
          <mxGeometry relative="1" as="geometry">
            <Array as="points">
              <mxPoint x="240" y="440" />
            </Array>
            <mxPoint x="280" y="440" as="sourcePoint" />
          </mxGeometry>
        </mxCell>
        <mxCell id="UBjJZvMahUqhplBNhwVx-22" value="" style="triangle;whiteSpace=wrap;html=1;rotation=90;fillColor=#f8cecc;strokeColor=#b85450;" parent="1" vertex="1">
          <mxGeometry x="220" y="420" width="40" height="40" as="geometry" />
        </mxCell>
        <mxCell id="UBjJZvMahUqhplBNhwVx-26" style="edgeStyle=orthogonalEdgeStyle;rounded=0;orthogonalLoop=1;jettySize=auto;html=1;" parent="1" target="UBjJZvMahUqhplBNhwVx-20" edge="1">
          <mxGeometry relative="1" as="geometry">
            <Array as="points">
              <mxPoint x="400" y="440" />
            </Array>
            <mxPoint x="360" y="440" as="sourcePoint" />
          </mxGeometry>
        </mxCell>
        <mxCell id="UBjJZvMahUqhplBNhwVx-21" value="" style="triangle;whiteSpace=wrap;html=1;rotation=-90;fillColor=#d5e8d4;strokeColor=#82b366;" parent="1" vertex="1">
          <mxGeometry x="380" y="420" width="40" height="40" as="geometry" />
        </mxCell>
        <mxCell id="UBjJZvMahUqhplBNhwVx-30" value="Standby" style="ellipse;whiteSpace=wrap;html=1;aspect=fixed;fillColor=#e1d5e7;strokeColor=#9673a6;" parent="1" vertex="1">
          <mxGeometry x="200" y="640" width="80" height="80" as="geometry" />
        </mxCell>
        <mxCell id="UBjJZvMahUqhplBNhwVx-32" value="DivIVA&lt;div&gt;0&lt;/div&gt;" style="shape=hexagon;perimeter=hexagonPerimeter2;whiteSpace=wrap;html=1;fixedSize=1;fillColor=#dae8fc;strokeColor=#6c8ebf;" parent="1" vertex="1">
          <mxGeometry x="160" y="580" width="80" height="40" as="geometry" />
        </mxCell>
        <mxCell id="UBjJZvMahUqhplBNhwVx-33" value="DivIVA&lt;br&gt;&lt;div&gt;fraction&lt;/div&gt;" style="shape=hexagon;perimeter=hexagonPerimeter2;whiteSpace=wrap;html=1;fixedSize=1;fillColor=#dae8fc;strokeColor=#6c8ebf;" parent="1" vertex="1">
          <mxGeometry x="400" y="580" width="80" height="40" as="geometry" />
        </mxCell>
        <mxCell id="UBjJZvMahUqhplBNhwVx-44" style="edgeStyle=orthogonalEdgeStyle;rounded=0;orthogonalLoop=1;jettySize=auto;html=1;entryX=0;entryY=0.5;entryDx=0;entryDy=0;" parent="1" source="UBjJZvMahUqhplBNhwVx-36" target="EBqnHdZ7zCFGOXM2lIZ9-2" edge="1">
          <mxGeometry relative="1" as="geometry">
            <Array as="points" />
            <mxPoint x="470" y="680" as="targetPoint" />
          </mxGeometry>
        </mxCell>
        <mxCell id="UBjJZvMahUqhplBNhwVx-36" value="Lateral" style="ellipse;whiteSpace=wrap;html=1;aspect=fixed;fillColor=#f8cecc;strokeColor=#b85450;" parent="1" vertex="1">
          <mxGeometry x="360" y="640" width="80" height="80" as="geometry" />
        </mxCell>
        <mxCell id="UBjJZvMahUqhplBNhwVx-45" style="edgeStyle=orthogonalEdgeStyle;rounded=0;orthogonalLoop=1;jettySize=auto;html=1;" parent="1" target="UBjJZvMahUqhplBNhwVx-42" edge="1">
          <mxGeometry relative="1" as="geometry">
            <mxPoint x="550" y="680" as="sourcePoint" />
          </mxGeometry>
        </mxCell>
        <mxCell id="UBjJZvMahUqhplBNhwVx-41" value="" style="triangle;whiteSpace=wrap;html=1;rotation=-90;fillColor=#d5e8d4;strokeColor=#82b366;" parent="1" vertex="1">
          <mxGeometry x="500" y="620" width="40" height="40" as="geometry" />
        </mxCell>
        <mxCell id="UBjJZvMahUqhplBNhwVx-52" style="edgeStyle=orthogonalEdgeStyle;rounded=0;orthogonalLoop=1;jettySize=auto;html=1;" parent="1" source="UBjJZvMahUqhplBNhwVx-42" target="UBjJZvMahUqhplBNhwVx-50" edge="1">
          <mxGeometry relative="1" as="geometry" />
        </mxCell>
        <mxCell id="UBjJZvMahUqhplBNhwVx-42" value="grow lateral" style="rounded=1;whiteSpace=wrap;html=1;" parent="1" vertex="1">
          <mxGeometry x="600" y="650" width="80" height="60" as="geometry" />
        </mxCell>
        <mxCell id="UBjJZvMahUqhplBNhwVx-50" value="Standby" style="ellipse;whiteSpace=wrap;html=1;aspect=fixed;fillColor=#e1d5e7;strokeColor=#9673a6;" parent="1" vertex="1">
          <mxGeometry x="720" y="640" width="80" height="80" as="geometry" />
        </mxCell>
        <mxCell id="UBjJZvMahUqhplBNhwVx-51" value="DivIVA&lt;br&gt;&lt;div&gt;0&lt;/div&gt;" style="shape=hexagon;perimeter=hexagonPerimeter2;whiteSpace=wrap;html=1;fixedSize=1;fillColor=#dae8fc;strokeColor=#6c8ebf;" parent="1" vertex="1">
          <mxGeometry x="720" y="600" width="80" height="40" as="geometry" />
        </mxCell>
        <mxCell id="UBjJZvMahUqhplBNhwVx-53" value="DivIVA&lt;div&gt;all&lt;/div&gt;" style="shape=hexagon;perimeter=hexagonPerimeter2;whiteSpace=wrap;html=1;fixedSize=1;fillColor=#dae8fc;strokeColor=#6c8ebf;" parent="1" vertex="1">
          <mxGeometry x="120" y="460" width="80" height="40" as="geometry" />
        </mxCell>
        <mxCell id="UBjJZvMahUqhplBNhwVx-54" value="DivIVA&lt;br&gt;&lt;div&gt;fraction&lt;/div&gt;" style="shape=hexagon;perimeter=hexagonPerimeter2;whiteSpace=wrap;html=1;fixedSize=1;fillColor=#dae8fc;strokeColor=#6c8ebf;" parent="1" vertex="1">
          <mxGeometry x="440" y="460" width="80" height="40" as="geometry" />
        </mxCell>
        <mxCell id="p9Errk_Y2sP-5_f58QAA-3" style="edgeStyle=orthogonalEdgeStyle;rounded=0;orthogonalLoop=1;jettySize=auto;html=1;dashed=1;" parent="1" source="UBjJZvMahUqhplBNhwVx-42" target="UBjJZvMahUqhplBNhwVx-11" edge="1">
          <mxGeometry relative="1" as="geometry">
            <Array as="points">
              <mxPoint x="640" y="360" />
            </Array>
          </mxGeometry>
        </mxCell>
        <mxCell id="UBjJZvMahUqhplBNhwVx-56" value="DivIVA&lt;br&gt;&lt;div&gt;all&lt;/div&gt;" style="shape=hexagon;perimeter=hexagonPerimeter2;whiteSpace=wrap;html=1;fixedSize=1;fillColor=#dae8fc;strokeColor=#6c8ebf;" parent="1" vertex="1">
          <mxGeometry x="600" y="520" width="80" height="40" as="geometry" />
        </mxCell>
        <mxCell id="p9Errk_Y2sP-5_f58QAA-4" value="Initial&lt;div&gt;DivIVA&lt;/div&gt;" style="shape=hexagon;perimeter=hexagonPerimeter2;whiteSpace=wrap;html=1;fixedSize=1;fillColor=#dae8fc;strokeColor=#6c8ebf;" parent="1" vertex="1">
          <mxGeometry x="120" y="300" width="80" height="40" as="geometry" />
        </mxCell>
        <mxCell id="p9Errk_Y2sP-5_f58QAA-5" value="Initial&lt;div&gt;DivIVA&lt;/div&gt;" style="shape=hexagon;perimeter=hexagonPerimeter2;whiteSpace=wrap;html=1;fixedSize=1;fillColor=#dae8fc;strokeColor=#6c8ebf;" parent="1" vertex="1">
          <mxGeometry x="440" y="300" width="80" height="40" as="geometry" />
        </mxCell>
        <mxCell id="EBqnHdZ7zCFGOXM2lIZ9-1" value="DivIVA" style="ellipse;whiteSpace=wrap;html=1;fillColor=#ffe6cc;strokeColor=#d79b00;" parent="1" vertex="1">
          <mxGeometry x="280" y="420" width="80" height="40" as="geometry" />
        </mxCell>
        <mxCell id="EBqnHdZ7zCFGOXM2lIZ9-2" value="DivIVA" style="ellipse;whiteSpace=wrap;html=1;fillColor=#ffe6cc;strokeColor=#d79b00;" parent="1" vertex="1">
          <mxGeometry x="480" y="660" width="80" height="40" as="geometry" />
        </mxCell>
      </root>
    </mxGraphModel>
  </diagram>
</mxfile>
